<mxfile host="app.diagrams.net" agent="Mozilla/5.0 (Macintosh; Intel Mac OS X 10_15_7) AppleWebKit/605.1.15 (KHTML, like Gecko) Version/26.0.1 Safari/605.1.15" version="28.2.8">
  <diagram name="Page-1" id="e7e014a7-5840-1c2e-5031-d8a46d1fe8dd">
    <mxGraphModel grid="1" page="1" gridSize="10" guides="1" tooltips="1" connect="1" arrows="1" fold="1" pageScale="1" pageWidth="1169" pageHeight="826" background="none" math="0" shadow="0">
      <root>
        <mxCell id="0" />
        <mxCell id="1" parent="0" />
        <mxCell id="2" value="Frontend" style="swimlane;whiteSpace=wrap;startSize=23;" vertex="1" parent="1">
          <mxGeometry x="164.5" y="128" width="280" height="570" as="geometry" />
        </mxCell>
        <mxCell id="IilVz28MaoYOf83EKGj8-23" style="edgeStyle=orthogonalEdgeStyle;rounded=0;orthogonalLoop=1;jettySize=auto;html=1;exitX=0.5;exitY=1;exitDx=0;exitDy=0;entryX=0.5;entryY=0;entryDx=0;entryDy=0;" edge="1" parent="2" source="IilVz28MaoYOf83EKGj8-3" target="IilVz28MaoYOf83EKGj8-4">
          <mxGeometry relative="1" as="geometry" />
        </mxCell>
        <mxCell id="IilVz28MaoYOf83EKGj8-3" value="" style="ellipse;whiteSpace=wrap;html=1;aspect=fixed;fillColor=#000000;" vertex="1" parent="2">
          <mxGeometry x="125.5" y="32" width="28" height="28" as="geometry" />
        </mxCell>
        <mxCell id="IilVz28MaoYOf83EKGj8-21" style="edgeStyle=orthogonalEdgeStyle;rounded=0;orthogonalLoop=1;jettySize=auto;html=1;exitX=0.5;exitY=1;exitDx=0;exitDy=0;entryX=0.5;entryY=0;entryDx=0;entryDy=0;" edge="1" parent="2" source="IilVz28MaoYOf83EKGj8-4" target="IilVz28MaoYOf83EKGj8-5">
          <mxGeometry relative="1" as="geometry" />
        </mxCell>
        <mxCell id="IilVz28MaoYOf83EKGj8-4" value="Aufruf Loginpage" style="rounded=1;whiteSpace=wrap;html=1;" vertex="1" parent="2">
          <mxGeometry x="79.5" y="72" width="120" height="60" as="geometry" />
        </mxCell>
        <mxCell id="IilVz28MaoYOf83EKGj8-5" value="Eingabe des zu löschenden Users und Passwort" style="rounded=1;whiteSpace=wrap;html=1;" vertex="1" parent="2">
          <mxGeometry x="79.5" y="152" width="120" height="60" as="geometry" />
        </mxCell>
        <mxCell id="IilVz28MaoYOf83EKGj8-16" style="edgeStyle=orthogonalEdgeStyle;rounded=0;orthogonalLoop=1;jettySize=auto;html=1;exitX=0.5;exitY=1;exitDx=0;exitDy=0;entryX=0.5;entryY=0;entryDx=0;entryDy=0;" edge="1" parent="2" source="IilVz28MaoYOf83EKGj8-12" target="IilVz28MaoYOf83EKGj8-15">
          <mxGeometry relative="1" as="geometry" />
        </mxCell>
        <mxCell id="IilVz28MaoYOf83EKGj8-12" value="Abfrage ob User wirklich gelöscht werden soll" style="rounded=1;whiteSpace=wrap;html=1;" vertex="1" parent="2">
          <mxGeometry x="79.5" y="241" width="120" height="60" as="geometry" />
        </mxCell>
        <mxCell id="IilVz28MaoYOf83EKGj8-17" style="edgeStyle=orthogonalEdgeStyle;rounded=0;orthogonalLoop=1;jettySize=auto;html=1;exitX=0;exitY=0.5;exitDx=0;exitDy=0;entryX=0;entryY=0.5;entryDx=0;entryDy=0;" edge="1" parent="2" source="IilVz28MaoYOf83EKGj8-15" target="IilVz28MaoYOf83EKGj8-4">
          <mxGeometry relative="1" as="geometry">
            <Array as="points">
              <mxPoint x="36" y="351" />
              <mxPoint x="36" y="102" />
            </Array>
          </mxGeometry>
        </mxCell>
        <mxCell id="IilVz28MaoYOf83EKGj8-15" value="" style="rhombus;whiteSpace=wrap;html=1;" vertex="1" parent="2">
          <mxGeometry x="122.25" y="332" width="34.5" height="38" as="geometry" />
        </mxCell>
        <mxCell id="IilVz28MaoYOf83EKGj8-28" style="edgeStyle=orthogonalEdgeStyle;rounded=0;orthogonalLoop=1;jettySize=auto;html=1;exitX=0.5;exitY=1;exitDx=0;exitDy=0;entryX=0.5;entryY=0;entryDx=0;entryDy=0;" edge="1" parent="2" source="IilVz28MaoYOf83EKGj8-20" target="IilVz28MaoYOf83EKGj8-26">
          <mxGeometry relative="1" as="geometry" />
        </mxCell>
        <mxCell id="IilVz28MaoYOf83EKGj8-20" value="Auslogen des Users und Rückkehr auf Homepage" style="rounded=1;whiteSpace=wrap;html=1;" vertex="1" parent="2">
          <mxGeometry x="79.5" y="412" width="120" height="60" as="geometry" />
        </mxCell>
        <mxCell id="IilVz28MaoYOf83EKGj8-26" value="" style="ellipse;whiteSpace=wrap;html=1;aspect=fixed;" vertex="1" parent="2">
          <mxGeometry x="120" y="501" width="39" height="39" as="geometry" />
        </mxCell>
        <mxCell id="IilVz28MaoYOf83EKGj8-27" value="" style="ellipse;whiteSpace=wrap;html=1;aspect=fixed;fillColor=#000000;" vertex="1" parent="2">
          <mxGeometry x="125.5" y="506.5" width="28" height="28" as="geometry" />
        </mxCell>
        <mxCell id="IilVz28MaoYOf83EKGj8-31" value="Abbruch" style="text;html=1;whiteSpace=wrap;strokeColor=none;fillColor=none;align=center;verticalAlign=middle;rounded=0;" vertex="1" parent="2">
          <mxGeometry x="65.5" y="322" width="60" height="30" as="geometry" />
        </mxCell>
        <mxCell id="RRSjeToz7rKR6nKcFXLO-3" value="Löschen" style="text;html=1;whiteSpace=wrap;strokeColor=none;fillColor=none;align=center;verticalAlign=middle;rounded=0;" vertex="1" parent="2">
          <mxGeometry x="153.5" y="322" width="60" height="30" as="geometry" />
        </mxCell>
        <mxCell id="3" value="Backend" style="swimlane;whiteSpace=wrap" vertex="1" parent="1">
          <mxGeometry x="444.5" y="128" width="280" height="570" as="geometry" />
        </mxCell>
        <mxCell id="IilVz28MaoYOf83EKGj8-9" style="edgeStyle=orthogonalEdgeStyle;rounded=0;orthogonalLoop=1;jettySize=auto;html=1;exitX=0.5;exitY=1;exitDx=0;exitDy=0;entryX=0.5;entryY=0;entryDx=0;entryDy=0;" edge="1" parent="3" source="IilVz28MaoYOf83EKGj8-6" target="IilVz28MaoYOf83EKGj8-7">
          <mxGeometry relative="1" as="geometry" />
        </mxCell>
        <mxCell id="IilVz28MaoYOf83EKGj8-6" value="User in Datenbank vorhanden" style="rounded=1;whiteSpace=wrap;html=1;" vertex="1" parent="3">
          <mxGeometry x="95.5" y="152" width="120" height="60" as="geometry" />
        </mxCell>
        <mxCell id="IilVz28MaoYOf83EKGj8-7" value="" style="rhombus;whiteSpace=wrap;html=1;" vertex="1" parent="3">
          <mxGeometry x="138.25" y="252" width="34.5" height="38" as="geometry" />
        </mxCell>
        <mxCell id="IilVz28MaoYOf83EKGj8-18" value="Userdaten aus Datenbank löschen" style="rounded=1;whiteSpace=wrap;html=1;" vertex="1" parent="3">
          <mxGeometry x="95.5" y="321" width="120" height="60" as="geometry" />
        </mxCell>
        <mxCell id="IilVz28MaoYOf83EKGj8-29" value="Nicht gefunden" style="text;html=1;whiteSpace=wrap;strokeColor=none;fillColor=none;align=center;verticalAlign=middle;rounded=0;" vertex="1" parent="3">
          <mxGeometry x="172.75" y="242" width="60" height="30" as="geometry" />
        </mxCell>
        <mxCell id="IilVz28MaoYOf83EKGj8-30" value="gefunden" style="text;html=1;whiteSpace=wrap;strokeColor=none;fillColor=none;align=center;verticalAlign=middle;rounded=0;" vertex="1" parent="3">
          <mxGeometry x="80.5" y="242" width="60" height="30" as="geometry" />
        </mxCell>
        <mxCell id="IilVz28MaoYOf83EKGj8-8" style="edgeStyle=orthogonalEdgeStyle;rounded=0;orthogonalLoop=1;jettySize=auto;html=1;exitX=1;exitY=0.5;exitDx=0;exitDy=0;entryX=1;entryY=0.5;entryDx=0;entryDy=0;" edge="1" parent="1" source="IilVz28MaoYOf83EKGj8-7" target="IilVz28MaoYOf83EKGj8-4">
          <mxGeometry relative="1" as="geometry">
            <Array as="points">
              <mxPoint x="680" y="399" />
              <mxPoint x="680" y="230" />
            </Array>
          </mxGeometry>
        </mxCell>
        <mxCell id="IilVz28MaoYOf83EKGj8-11" style="edgeStyle=orthogonalEdgeStyle;rounded=0;orthogonalLoop=1;jettySize=auto;html=1;exitX=1;exitY=0.5;exitDx=0;exitDy=0;entryX=0;entryY=0.5;entryDx=0;entryDy=0;" edge="1" parent="1" source="IilVz28MaoYOf83EKGj8-5" target="IilVz28MaoYOf83EKGj8-6">
          <mxGeometry relative="1" as="geometry" />
        </mxCell>
        <mxCell id="IilVz28MaoYOf83EKGj8-13" style="edgeStyle=orthogonalEdgeStyle;rounded=0;orthogonalLoop=1;jettySize=auto;html=1;exitX=0;exitY=0.5;exitDx=0;exitDy=0;entryX=1;entryY=0.5;entryDx=0;entryDy=0;" edge="1" parent="1" source="IilVz28MaoYOf83EKGj8-7" target="IilVz28MaoYOf83EKGj8-12">
          <mxGeometry relative="1" as="geometry" />
        </mxCell>
        <mxCell id="IilVz28MaoYOf83EKGj8-19" style="edgeStyle=orthogonalEdgeStyle;rounded=0;orthogonalLoop=1;jettySize=auto;html=1;exitX=1;exitY=0.5;exitDx=0;exitDy=0;" edge="1" parent="1" source="IilVz28MaoYOf83EKGj8-15" target="IilVz28MaoYOf83EKGj8-18">
          <mxGeometry relative="1" as="geometry" />
        </mxCell>
        <mxCell id="IilVz28MaoYOf83EKGj8-24" style="edgeStyle=orthogonalEdgeStyle;rounded=0;orthogonalLoop=1;jettySize=auto;html=1;exitX=0.5;exitY=1;exitDx=0;exitDy=0;entryX=1;entryY=0.5;entryDx=0;entryDy=0;" edge="1" parent="1" source="IilVz28MaoYOf83EKGj8-18" target="IilVz28MaoYOf83EKGj8-20">
          <mxGeometry relative="1" as="geometry" />
        </mxCell>
      </root>
    </mxGraphModel>
  </diagram>
</mxfile>
